HIERARCHY
ROOT Hips
{
	OFFSET -3.958830 18.904000 13.208200
	CHANNELS 6 Xposition Yposition Zposition Zrotation Yrotation Xrotation 
	JOINT LHipJoint
	{
		OFFSET 0.000000 0.000000 0.000000
		CHANNELS 3 Zrotation Yrotation Xrotation
		JOINT LeftUpLeg
		{
			OFFSET 1.800000 -1.400000 0.085000
			CHANNELS 3 Zrotation Yrotation Xrotation
			JOINT LeftLeg
			{
				OFFSET 2.215000 -6.000000 0.000000
				CHANNELS 3 Zrotation Yrotation Xrotation
				JOINT LeftFoot
				{
					OFFSET 2.500000 -6.900000 0.000000
					CHANNELS 3 Zrotation Yrotation Xrotation
					JOINT LeftToeBase
					{
						OFFSET 0.200000 -0.500000 1.950000
						CHANNELS 3 Zrotation Yrotation Xrotation
						End Site
						{
							OFFSET 0.000000 0.000000 0.000000
						}
					}
				}
			}
		}
	}
	JOINT RHipJoint
	{
		OFFSET 0.000000 0.000000 0.000000
		CHANNELS 3 Zrotation Yrotation Xrotation
		JOINT RightUpLeg
		{
			OFFSET -1.800000 -1.400000 0.085000
			CHANNELS 3 Zrotation Yrotation Xrotation
			JOINT RightLeg
			{
				OFFSET -2.215000 -6.000000 0.000000
				CHANNELS 3 Zrotation Yrotation Xrotation
				JOINT RightFoot
				{
					OFFSET -2.500000 -6.900000 0.000000
					CHANNELS 3 Zrotation Yrotation Xrotation
					JOINT RightToeBase
					{
						OFFSET -0.200000 -0.500000 1.950000
						CHANNELS 3 Zrotation Yrotation Xrotation
						End Site
						{
							OFFSET 0.000000 0.000000 0.000000
						}
					}
				}
			}
		}
	}
	JOINT LowerBack
	{
		OFFSET 0.000000 0.000000 0.000000
		CHANNELS 3 Zrotation Yrotation Xrotation
		JOINT Spine
		{
			OFFSET -0.087000 1.940000 -0.288900
			CHANNELS 3 Zrotation Yrotation Xrotation
			JOINT Spine1
			{
				OFFSET 0.000000 1.950000 0.060000
				CHANNELS 3 Zrotation Yrotation Xrotation
				JOINT Neck
				{
					OFFSET 0.000000 0.000000 0.000000
					CHANNELS 3 Zrotation Yrotation Xrotation
					JOINT Neck1
					{
						OFFSET 0.000000 1.600000 0.340000
						CHANNELS 3 Zrotation Yrotation Xrotation
						JOINT Head
						{
							OFFSET 0.000000 1.667000 -0.240000
							CHANNELS 3 Zrotation Yrotation Xrotation
							End Site
							{
								OFFSET 0.000000 0.000000 0.000000
							}
						}
					}
				}
				JOINT LeftShoulder
				{
					OFFSET 0.000000 0.000000 0.000000
					CHANNELS 3 Zrotation Yrotation Xrotation
					JOINT LeftArm
					{
						OFFSET 2.700000 1.550000 -0.730000
						CHANNELS 3 Zrotation Yrotation Xrotation
						JOINT LeftForeArm
						{
							OFFSET 5.450000 0.000000 0.000000
							CHANNELS 3 Zrotation Yrotation Xrotation
							JOINT LeftHand
							{
								OFFSET 3.450000 0.000000 0.000000
								CHANNELS 3 Zrotation Yrotation Xrotation
								JOINT LeftHandIndex1
								{
									OFFSET 0.750000 0.000000 0.000000
									CHANNELS 3 Zrotation Yrotation Xrotation
									End Site
									{
										OFFSET 0.000000 0.000000 0.000000
									}
								}
							}
						}
					}
				}
				JOINT RightShoulder
				{
					OFFSET 0.000000 0.000000 0.000000
					CHANNELS 3 Zrotation Yrotation Xrotation
					JOINT RightArm
					{
						OFFSET -2.700000 1.550000 -0.730000
						CHANNELS 3 Zrotation Yrotation Xrotation
						JOINT RightForeArm
						{
							OFFSET -5.450000 0.000000 0.000000
							CHANNELS 3 Zrotation Yrotation Xrotation
							JOINT RightHand
							{
								OFFSET -3.450000 0.000000 0.000000
								CHANNELS 3 Zrotation Yrotation Xrotation
								JOINT RightHandIndex1
								{
									OFFSET -0.750000 0.000000 0.000000
									CHANNELS 3 Zrotation Yrotation Xrotation
									End Site
									{
										OFFSET 0.000000 0.000000 0.000000
									}
								}
							}
						}
					}
				}
			}
		}
	}
}
MOTION
Frames: 12
Frame Time: 0.016667
-2.511930 17.778380 3.240850 7.219836 -17.268781 -0.944393 -15.264570 12.886248 4.824763 6.119194 -12.077441 -26.560828 15.784085 11.674058 108.333975 3.425038 17.045960 -0.347844 -0.628890 -0.960360 -0.556080 18.361896 -9.898840 2.131857 -3.420939 2.125880 -30.639791 -11.649900 -4.470969 46.319560 -0.447939 -6.176569 2.372681 -0.798990 0.518770 0.196080 -3.533542 -3.363130 -8.484274 21.301520 -7.859407 21.071844 -5.919009 -2.311203 -7.984930 5.728508 -6.124486 -11.018348 -12.398317 7.606307 31.039541 -3.844330 8.374740 13.060140 3.730901 24.258717 1.854903 -66.814647 26.855619 -27.893423 -16.718505 -39.078218 2.889294 -3.600145 3.017168 0.368400 0.187630 -0.165990 0.095880 -15.189216 -18.338225 9.264044 70.905342 -26.622347 -31.911280 31.996974 46.503207 10.519166 1.967676 -1.619172 -0.192060 -0.059690 0.375830 0.064850 
-2.510990 17.781570 3.175820 7.790411 -17.985076 -0.606547 -15.300242 12.684589 4.975142 6.425115 -12.377237 -29.086391 16.277849 11.895277 109.997645 3.395637 17.261460 -0.409871 -0.633900 -0.982920 -0.540550 18.365081 -9.770743 2.187834 -3.341854 2.525266 -31.860189 -12.490832 -4.034176 46.560128 -0.456677 -6.196890 2.351143 -0.786200 0.523900 0.189360 -3.512472 -3.267906 -8.597599 20.473281 -7.418956 22.365739 -6.201696 -1.721337 -8.393749 5.717314 -5.944657 -10.722739 -11.910827 7.388537 30.410513 -4.188730 8.516930 10.619570 3.051278 23.968166 1.433860 -65.886241 24.188359 -25.799506 -16.823827 -41.312920 3.449273 -3.605312 3.053194 0.412500 0.184330 -0.174360 0.075790 -14.462238 -18.047065 8.901045 72.389581 -24.195527 -31.161810 31.490315 47.719982 10.838835 1.960778 -1.596973 -0.235900 -0.027330 0.404320 0.031130 
-2.498430 17.825480 3.028040 8.535073 -20.096327 -0.515580 -15.447464 12.366587 5.441060 7.815303 -12.712460 -34.793944 13.021965 17.086085 110.250277 3.488074 17.808057 -0.577666 -0.535190 -0.860420 -0.468950 18.284316 -9.391081 2.256541 -2.624166 3.407434 -33.073869 -14.272319 -2.896791 46.376241 -0.527442 -6.102098 2.359541 -0.740290 0.433770 0.221240 -3.225040 -3.533245 -8.962178 18.018470 -6.727957 27.254282 -4.936550 0.031555 -11.178807 5.763632 -5.865236 -10.718923 -11.980928 7.340387 31.646399 -4.553000 8.566400 6.045260 0.162397 22.749560 0.837699 -64.858242 21.104647 -22.866128 -16.214648 -46.761800 4.573161 -3.515915 3.175120 0.458140 0.119650 -0.087100 0.085810 -11.382316 -15.770704 8.438211 70.542251 -20.552333 -27.520938 34.160746 53.417177 13.956801 2.006048 -1.722169 -0.181580 -0.048480 0.354190 0.025700 
-2.488380 17.857440 2.845960 10.676369 -20.620227 -1.654518 -15.647439 11.989494 6.087685 8.451110 -14.560884 -40.740442 8.183534 22.762709 109.414741 3.617333 18.585368 -0.800315 -0.407810 -0.678670 -0.377780 18.162642 -9.117575 2.053368 -3.610209 2.979212 -33.496883 -14.594573 -2.613467 44.096072 -0.517741 -5.684328 2.455555 -0.653940 0.329340 0.260400 -2.791473 -3.848165 -9.275580 12.780129 -5.558371 32.214900 -2.079207 1.132555 -11.935930 5.563223 -5.233280 -10.532199 -11.077405 6.790695 32.906736 -5.818050 8.762510 -0.550020 -3.008614 18.887711 0.762133 -65.520888 14.774732 -19.830730 -10.021098 -53.067724 2.911551 -3.447123 3.255840 0.487480 0.062000 0.011850 0.090350 -7.442152 -11.796094 7.612656 68.642744 -14.741282 -23.939985 32.346869 60.454510 15.153038 2.068487 -1.796721 -0.115110 -0.063400 0.296760 0.020030 
-2.452830 17.908980 2.647000 12.972036 -20.677007 -3.972658 -15.756587 11.572215 6.704810 9.686106 -16.529711 -45.574510 1.428308 29.968091 107.182040 3.806991 19.740856 -1.099429 -0.254150 -0.456880 -0.272180 18.107374 -9.075203 1.697828 -5.747027 1.998215 -32.374717 -13.879250 -2.860503 41.732460 -0.508139 -5.268377 2.545587 -0.522100 0.220570 0.263640 -2.575455 -3.789706 -9.438830 8.684470 -4.399861 37.966322 -0.924349 2.067319 -11.063242 5.083345 -4.581259 -10.880440 -10.240046 6.011521 34.679690 -5.442470 7.717760 -8.556870 -6.089188 11.761406 1.220144 -63.921212 5.987695 -15.866565 1.730022 -58.040661 -2.833846 -3.372500 3.215411 0.539290 -0.014010 0.108530 0.091620 -3.310435 -4.738584 7.593665 67.287007 -8.604944 -22.041974 24.392503 69.174165 12.276015 2.089614 -1.760251 -0.076910 -0.033430 0.236470 0.002690 
-2.424030 17.971100 2.423320 15.111386 -21.020416 -7.497458 -15.796689 11.116019 7.168410 11.565250 -17.909566 -49.357948 -7.644043 36.047718 100.045395 3.740481 20.453192 -1.365912 -0.077110 -0.234960 -0.071950 18.107232 -9.183392 1.388548 -7.092005 1.359083 -30.401397 -14.311884 -2.482970 39.834576 -0.557304 -5.010359 2.551027 -0.336850 0.113520 0.294980 -2.514741 -3.303149 -9.495556 5.958047 -2.751558 41.813671 -1.083231 2.608417 -3.353545 4.887602 -1.912723 -11.909811 -5.571437 4.208330 37.576134 -8.891430 8.493020 -16.589590 -10.253274 -2.249074 3.024591 -56.208973 -3.403432 -14.673741 22.728391 -60.091605 -15.423654 -3.347640 2.874984 0.624610 -0.037720 0.218580 0.059080 0.770482 7.210983 8.498919 65.037902 0.429212 -24.683606 -10.405463 74.058682 -12.057455 1.879803 -1.309848 -0.089050 0.040470 0.197580 -0.081710 
-2.417230 18.014740 2.253430 16.985868 -21.432942 -9.484403 -15.850973 10.652882 7.561162 14.332950 -18.390966 -53.826549 -17.210288 39.912979 90.422957 3.530556 20.275532 -1.444023 0.112270 0.012380 0.112360 18.112265 -9.197970 1.220642 -8.096197 1.288661 -29.661726 -15.056537 -1.879368 38.426275 -0.595283 -4.855102 2.536932 -0.140350 0.029110 0.314220 -2.471132 -2.800660 -9.526818 3.644614 -0.758827 42.846082 -0.880974 3.212946 4.185837 4.358628 1.237845 -12.557020 0.376184 2.530492 38.779117 -10.523360 9.101160 -21.025810 -15.530060 -15.991076 5.349690 -40.474427 -6.500250 -15.429008 37.525833 -59.444578 -23.906035 -3.307127 2.610960 0.640230 -0.031540 0.291550 0.049930 6.739601 18.708574 9.302767 53.355094 5.446579 -26.157682 -44.010318 70.346695 -33.458887 1.531802 -0.447234 -0.079400 0.080750 0.126240 -0.138620 
-2.419610 18.023410 2.138280 18.208770 -21.974380 -10.273833 -15.970017 10.423398 7.870595 17.381377 -17.962604 -57.844034 -26.019795 41.279971 80.210412 3.281575 19.384871 -1.281327 0.175380 0.094120 0.201410 18.071546 -8.970224 1.175086 -8.032680 1.706363 -29.928810 -16.261445 -1.116170 38.069253 -0.623975 -4.821160 2.540130 -0.066990 0.020700 0.310940 -2.274361 -2.955145 -9.607966 1.117920 0.912167 44.393043 0.104637 3.637377 7.070417 4.076140 3.137969 -13.694481 3.858808 1.836009 39.372951 -11.324080 9.793620 -21.508880 -17.647430 -23.768077 7.002472 -28.927711 -6.509686 -15.508067 40.562088 -55.639579 -23.477670 -3.370594 2.604048 0.635210 -0.009500 0.319110 0.059090 9.305853 25.636459 10.060220 42.107080 7.453435 -24.287928 -53.245529 61.701690 -34.443647 1.504928 -0.455036 -0.092910 0.126430 0.082980 -0.159100 
-2.417670 18.009660 2.067970 18.938915 -21.809694 -10.613401 -16.072080 10.346348 8.071467 19.563696 -17.493574 -60.445338 -32.451422 40.772819 72.048439 3.049263 18.333121 -1.083913 0.215510 0.151040 0.233670 18.032274 -8.764728 1.143223 -7.726070 1.997304 -30.040453 -17.438394 -0.484893 37.984764 -0.638617 -4.866898 2.511767 -0.032960 -0.003740 0.322330 -2.093659 -3.287073 -9.664886 -0.394254 1.913509 45.661492 1.309394 3.716084 7.799644 3.869770 3.683085 -14.400406 4.718907 1.469517 39.161297 -11.540490 9.829970 -20.411200 -18.160892 -26.958099 7.339807 -22.106187 -7.677566 -14.633393 36.702703 -51.962241 -19.331466 -3.436549 2.782124 0.592980 0.003450 0.321050 0.057550 10.213115 28.715907 10.272823 33.901040 8.090098 -22.771323 -49.186589 57.416418 -29.066217 1.592012 -0.770926 -0.060960 0.090210 0.054410 -0.155960 
-2.432130 17.975710 2.055230 19.092094 -22.318598 -10.724473 -16.115140 10.283991 8.146866 21.128081 -16.505226 -60.947242 -36.029821 40.122391 67.075476 2.860158 17.655733 -0.940247 0.174010 0.099180 0.219600 18.024303 -8.641090 1.199131 -6.642574 2.412966 -30.284602 -19.195799 0.306615 38.188310 -0.662255 -4.973836 2.497793 -0.053080 0.027270 0.308620 -2.031969 -3.394096 -9.724181 -0.840975 2.459915 45.597604 1.903043 3.942763 7.890769 3.631634 3.819457 -14.821953 4.741587 1.140941 40.134356 -11.616190 9.521600 -19.698420 -17.196652 -27.952906 7.336271 -20.440014 -9.548744 -13.579696 31.663293 -48.540890 -15.560136 -3.489537 2.794432 0.599200 0.023420 0.301600 0.038260 9.752204 29.525377 10.479917 32.261879 8.380897 -21.762906 -44.270660 54.769010 -24.657406 1.618927 -0.878145 -0.089010 0.130710 0.091940 -0.166400 
-2.452740 17.945990 2.104000 18.620674 -22.749341 -10.242415 -16.062131 10.044066 8.168794 22.456324 -15.276358 -60.344193 -37.522061 41.505571 66.516697 2.844508 17.731383 -0.962717 0.199920 0.129730 0.245170 18.091111 -8.634870 1.346758 -5.829032 2.944513 -31.372381 -20.066523 0.652301 40.065602 -0.743437 -5.320177 2.371239 -0.014430 0.040570 0.311670 -2.245988 -2.909698 -9.789597 0.928723 1.504999 43.191991 0.498843 3.628082 9.362601 3.635022 3.631906 -14.577978 4.471782 1.017122 41.207481 -11.904310 9.116090 -19.300670 -15.772394 -27.285103 7.162870 -22.242416 -10.510226 -12.680243 27.170519 -45.903677 -13.007940 -3.511658 2.781336 0.600940 0.041300 0.304820 0.040470 8.244453 28.639026 10.406186 37.085801 10.302604 -20.448255 -40.276701 50.836609 -21.536531 1.644576 -0.982644 -0.100690 0.169230 0.095190 -0.173060 
-2.486960 17.907650 2.216690 17.333958 -22.369182 -10.039143 -15.914765 9.997021 7.998264 22.441044 -14.690798 -56.607008 -36.495745 41.958484 67.751505 2.890342 17.823449 -0.963593 0.224830 0.172370 0.235290 18.188281 -8.806465 1.491842 -5.168242 3.116074 -31.844260 -19.907367 0.462306 43.443424 -0.846409 -5.829497 2.225374 0.014690 0.052130 0.254860 -2.603023 -2.426646 -9.793066 4.139586 -0.642378 40.449174 -1.147960 2.644468 9.834813 3.445645 2.259370 -14.131063 1.625642 1.529760 43.583332 -9.877730 7.883470 -17.700820 -14.004738 -24.939550 7.078226 -28.916626 -11.154979 -11.877939 24.166812 -43.539728 -11.685924 -3.458968 2.739961 0.595010 0.016950 0.298690 0.074620 6.932430 26.309768 10.260261 45.147517 9.824704 -20.248969 -33.717417 50.843037 -18.821364 1.685187 -1.011449 -0.112070 0.223780 0.064870 -0.148580 
